<?xml version="1.0" standalone="no"?><svg xmlns="http://www.w3.org/2000/svg" viewBox="0 0 1440 320"><path fill="#0099ff" fill-opacity="1" d="M0,32L0,32L36.9,32L36.9,128L73.8,128L73.8,32L110.8,32L110.8,224L147.7,224L147.7,0L184.6,0L184.6,192L221.5,192L221.5,256L258.5,256L258.5,224L295.4,224L295.4,256L332.3,256L332.3,128L369.2,128L369.2,256L406.2,256L406.2,320L443.1,320L443.1,320L480,320L480,160L516.9,160L516.9,320L553.8,320L553.8,32L590.8,32L590.8,192L627.7,192L627.7,288L664.6,288L664.6,224L701.5,224L701.5,128L738.5,128L738.5,160L775.4,160L775.4,96L812.3,96L812.3,160L849.2,160L849.2,288L886.2,288L886.2,256L923.1,256L923.1,128L960,128L960,192L996.9,192L996.9,256L1033.8,256L1033.8,192L1070.8,192L1070.8,256L1107.7,256L1107.7,32L1144.6,32L1144.6,96L1181.5,96L1181.5,256L1218.5,256L1218.5,192L1255.4,192L1255.4,128L1292.3,128L1292.3,192L1329.2,192L1329.2,128L1366.2,128L1366.2,192L1403.1,192L1403.1,224L1440,224L1440,0L1403.1,0L1403.1,0L1366.2,0L1366.2,0L1329.2,0L1329.2,0L1292.3,0L1292.3,0L1255.4,0L1255.4,0L1218.5,0L1218.5,0L1181.5,0L1181.5,0L1144.6,0L1144.6,0L1107.7,0L1107.7,0L1070.8,0L1070.8,0L1033.8,0L1033.8,0L996.9,0L996.9,0L960,0L960,0L923.1,0L923.1,0L886.2,0L886.2,0L849.2,0L849.2,0L812.3,0L812.3,0L775.4,0L775.4,0L738.5,0L738.5,0L701.5,0L701.5,0L664.6,0L664.6,0L627.7,0L627.7,0L590.8,0L590.8,0L553.8,0L553.8,0L516.9,0L516.9,0L480,0L480,0L443.1,0L443.1,0L406.2,0L406.2,0L369.2,0L369.2,0L332.3,0L332.3,0L295.4,0L295.4,0L258.5,0L258.5,0L221.5,0L221.5,0L184.6,0L184.6,0L147.7,0L147.7,0L110.8,0L110.8,0L73.8,0L73.8,0L36.9,0L36.9,0L0,0L0,0Z"></path></svg>